<svg xmlns="http://www.w3.org/2000/svg" xmlns:xlink="http://www.w3.org/1999/xlink" width="500" zoomAndPan="magnify" viewBox="0 0 375 374.999991" height="500" preserveAspectRatio="xMidYMid meet" version="1.0"><defs><g/></defs><path fill="#00adef" d="M 75.503906 166.941406 C 77.675781 162.96875 86.882812 154.675781 87.496094 156.066406 C 88.109375 157.453125 83.429688 160.726562 83.933594 161.195312 C 84.351562 161.578125 90.957031 154.21875 91.914062 155.527344 C 92.796875 156.730469 85.761719 162 86.109375 162.414062 C 86.488281 162.863281 93.597656 155.886719 94.433594 156.90625 C 95.378906 158.050781 87.878906 163.703125 87.878906 164.632812 C 87.875 165.464844 94.507812 159.136719 95.285156 160.039062 C 96.589844 161.558594 85.257812 169.414062 85.464844 170.613281 C 85.839844 172.820312 93.171875 173.355469 91.84375 176.839844 C 91.84375 176.839844 78.949219 172.707031 76.132812 175.664062 C 72.367188 179.621094 70.648438 183.34375 70.648438 183.34375 L 66.652344 175.757812 C 66.652344 175.757812 72.859375 171.78125 75.503906 166.941406 " fill-opacity="1" fill-rule="nonzero"/><path fill="#37b63f" d="M 66.367188 199.097656 C 62.394531 196.929688 54.101562 187.722656 55.492188 187.109375 C 56.878906 186.496094 60.152344 191.171875 60.621094 190.671875 C 61.003906 190.253906 53.644531 183.648438 54.953125 182.691406 C 56.15625 181.808594 61.425781 188.839844 61.839844 188.492188 C 62.289062 188.117188 55.3125 181.007812 56.328125 180.171875 C 57.480469 179.226562 63.128906 186.722656 64.058594 186.726562 C 64.890625 186.730469 58.5625 180.097656 59.464844 179.320312 C 60.984375 178.011719 68.839844 189.34375 70.039062 189.140625 C 72.246094 188.765625 72.78125 181.433594 76.265625 182.757812 C 76.265625 182.757812 72.132812 195.65625 75.089844 198.46875 C 79.046875 202.238281 82.769531 203.957031 82.769531 203.957031 L 75.1875 207.953125 C 75.1875 207.953125 71.207031 201.746094 66.367188 199.097656 " fill-opacity="1" fill-rule="nonzero"/><path fill="#3d6abc" d="M 98.523438 208.238281 C 96.355469 212.207031 87.148438 220.5 86.535156 219.113281 C 85.921875 217.726562 90.597656 214.449219 90.097656 213.984375 C 89.679688 213.601562 83.074219 220.960938 82.117188 219.652344 C 81.234375 218.445312 88.265625 213.179688 87.917969 212.765625 C 87.542969 212.316406 80.433594 219.292969 79.597656 218.273438 C 78.652344 217.125 86.148438 211.476562 86.152344 210.546875 C 86.15625 209.714844 79.523438 216.039062 78.746094 215.136719 C 77.4375 213.617188 88.769531 205.765625 88.566406 204.566406 C 88.191406 202.355469 80.859375 201.824219 82.183594 198.339844 C 82.183594 198.339844 95.082031 202.472656 97.894531 199.515625 C 101.664062 195.554688 103.382812 191.835938 103.382812 191.835938 L 107.378906 199.417969 C 107.378906 199.417969 101.171875 203.398438 98.523438 208.238281 " fill-opacity="1" fill-rule="nonzero"/><path fill="#89cf25" d="M 113.410156 184.507812 C 113.875 184.003906 117.152344 188.683594 118.539062 188.070312 C 119.925781 187.457031 111.632812 178.25 107.664062 176.078125 C 106.902344 175.664062 106.164062 175.160156 105.460938 174.609375 C 101.921875 174.367188 98.277344 173.984375 97.921875 174.488281 C 97.71875 174.773438 97.664062 175.152344 97.707031 175.589844 C 98.113281 175.941406 98.523438 176.3125 98.941406 176.707031 C 101.898438 179.523438 97.765625 192.417969 97.765625 192.417969 C 101.25 193.746094 101.78125 186.414062 103.992188 186.039062 C 105.191406 185.832031 113.042969 197.164062 114.5625 195.859375 C 115.464844 195.082031 109.140625 188.449219 109.972656 188.453125 C 110.902344 188.453125 116.550781 195.953125 117.699219 195.007812 C 118.714844 194.171875 111.742188 187.0625 112.191406 186.683594 C 112.605469 186.335938 117.871094 193.371094 119.078125 192.488281 C 120.386719 191.53125 113.027344 184.925781 113.410156 184.507812 " fill-opacity="1" fill-rule="nonzero"/><path fill="#f0441d" d="M 109.238281 191.453125 C 106.90625 188.78125 104.597656 185.933594 103.992188 186.039062 C 103.644531 186.097656 103.339844 186.324219 103.058594 186.664062 C 103.097656 187.199219 103.125 187.753906 103.140625 188.328125 C 103.242188 192.410156 91.199219 198.605469 91.199219 198.605469 C 92.726562 202.007812 98.289062 197.199219 100.117188 198.496094 C 101.109375 199.199219 98.648438 212.765625 100.648438 212.917969 C 101.835938 213.003906 102.050781 203.84375 102.636719 204.429688 C 103.292969 205.089844 101.988281 214.390625 103.46875 214.53125 C 104.777344 214.660156 104.871094 204.699219 105.457031 204.753906 C 105.996094 204.800781 104.746094 213.496094 106.222656 213.726562 C 107.824219 213.972656 107.292969 204.097656 107.859375 204.074219 C 108.542969 204.050781 107.550781 209.671875 108.964844 210.21875 C 110.382812 210.769531 111.027344 198.394531 109.753906 194.050781 C 109.511719 193.21875 109.34375 192.34375 109.238281 191.453125 " fill-opacity="1" fill-rule="nonzero"/><path fill="#f7c80b" d="M 80.554688 210.328125 C 81.382812 210.085938 82.261719 209.917969 83.152344 209.8125 C 85.824219 207.480469 88.671875 205.171875 88.566406 204.566406 C 88.507812 204.21875 88.277344 203.914062 87.9375 203.632812 C 87.40625 203.671875 86.851562 203.699219 86.277344 203.714844 C 82.195312 203.816406 76 191.773438 76 191.773438 C 72.597656 193.300781 77.40625 198.863281 76.109375 200.691406 C 75.40625 201.683594 61.835938 199.222656 61.6875 201.222656 C 61.597656 202.410156 70.761719 202.625 70.171875 203.210938 C 69.511719 203.867188 60.214844 202.5625 60.070312 204.042969 C 59.945312 205.351562 69.902344 205.445312 69.851562 206.03125 C 69.804688 206.570312 61.109375 205.320312 60.878906 206.796875 C 60.628906 208.398438 70.507812 207.867188 70.53125 208.433594 C 70.554688 209.117188 64.929688 208.125 64.382812 209.539062 C 63.835938 210.957031 76.210938 211.601562 80.554688 210.328125 " fill-opacity="1" fill-rule="nonzero"/><path fill="#9a158e" d="M 64.792969 183.726562 C 67.125 186.398438 69.433594 189.246094 70.039062 189.140625 C 70.382812 189.082031 70.691406 188.851562 70.972656 188.511719 C 70.933594 187.980469 70.902344 187.425781 70.890625 186.851562 C 70.789062 182.769531 82.828125 176.574219 82.828125 176.574219 C 81.304688 173.171875 75.738281 177.980469 73.914062 176.683594 C 72.921875 175.980469 75.378906 162.414062 73.382812 162.261719 C 72.195312 162.171875 71.976562 171.335938 71.394531 170.746094 C 70.738281 170.089844 72.042969 160.789062 70.5625 160.644531 C 69.253906 160.519531 69.160156 170.476562 68.574219 170.425781 C 68.035156 170.378906 69.28125 161.683594 67.804688 161.453125 C 66.207031 161.203125 66.738281 171.082031 66.171875 171.105469 C 65.488281 171.128906 66.480469 165.503906 65.0625 164.957031 C 63.648438 164.410156 63.003906 176.785156 64.277344 181.128906 C 64.519531 181.957031 64.6875 182.835938 64.792969 183.726562 " fill-opacity="1" fill-rule="nonzero"/><path fill="#ec0b62" d="M 104.179688 169.148438 C 104.226562 168.609375 112.921875 169.855469 113.148438 168.382812 C 113.398438 166.78125 103.523438 167.3125 103.5 166.746094 C 103.476562 166.0625 109.097656 167.054688 109.644531 165.636719 C 110.195312 164.222656 97.820312 163.578125 93.476562 164.851562 C 92.644531 165.09375 91.769531 165.261719 90.878906 165.367188 C 88.207031 167.699219 85.359375 170.007812 85.464844 170.613281 C 85.523438 170.960938 85.75 171.265625 86.089844 171.546875 C 86.625 171.507812 87.179688 171.476562 87.753906 171.464844 C 91.835938 171.363281 98.03125 183.402344 98.03125 183.402344 C 101.433594 181.878906 96.625 176.3125 97.921875 174.488281 C 98.625 173.496094 112.191406 175.953125 112.34375 173.957031 C 112.429688 172.769531 103.269531 172.550781 103.855469 171.964844 C 104.515625 171.3125 113.816406 172.617188 113.957031 171.136719 C 114.085938 169.828125 104.125 169.734375 104.179688 169.148438 " fill-opacity="1" fill-rule="nonzero"/><g fill="#000000" fill-opacity="1"><g transform="translate(125.557152, 194.29323)"><g><path d="M 15.21875 -4.421875 L 5.34375 -4.421875 L 3.46875 0 L 0.03125 0 L 8.671875 -19.578125 L 12.046875 -19.578125 L 20.609375 0 L 17.09375 0 Z M 13.953125 -7.359375 L 10.265625 -16.046875 L 6.578125 -7.359375 Z M 13.953125 -7.359375 "/></g></g></g><g fill="#000000" fill-opacity="1"><g transform="translate(147.817006, 194.29323)"><g><path d="M 2.578125 -19.578125 L 10.59375 -19.578125 C 13.519531 -19.578125 15.9375 -18.65625 17.84375 -16.8125 C 19.757812 -14.96875 20.71875 -12.625 20.71875 -9.78125 C 20.71875 -6.945312 19.757812 -4.609375 17.84375 -2.765625 C 15.925781 -0.921875 13.484375 0 10.515625 0 L 2.578125 0 Z M 5.875 -16.609375 L 5.875 -2.96875 L 10.6875 -2.96875 C 12.601562 -2.96875 14.195312 -3.601562 15.46875 -4.875 C 16.75 -6.15625 17.390625 -7.78125 17.390625 -9.75 C 17.390625 -11.726562 16.734375 -13.363281 15.421875 -14.65625 C 14.109375 -15.957031 12.484375 -16.609375 10.546875 -16.609375 Z M 5.875 -16.609375 "/></g></g></g><g fill="#000000" fill-opacity="1"><g transform="translate(171.111547, 194.29323)"><g><path d="M 23.265625 0 L 20.21875 0 L 20.1875 -14.625 L 14.015625 -2.046875 L 11.859375 -2.046875 L 5.671875 -14.625 L 5.671875 0 L 2.578125 0 L 2.578125 -19.578125 L 6.484375 -19.578125 L 12.953125 -6.578125 L 19.375 -19.578125 L 23.265625 -19.578125 Z M 23.265625 0 "/></g></g></g><g fill="#000000" fill-opacity="1"><g transform="translate(198.600748, 194.29323)"><g><path d="M 5.875 0 L 2.578125 0 L 2.578125 -19.578125 L 5.875 -19.578125 Z M 5.875 0 "/></g></g></g><g fill="#000000" fill-opacity="1"><g transform="translate(208.668101, 194.29323)"><g><path d="M 19.546875 0 L 16.3125 0 L 5.875 -14.046875 L 5.875 0 L 2.578125 0 L 2.578125 -19.578125 L 5.8125 -19.578125 L 16.3125 -5.515625 L 16.3125 -19.578125 L 19.546875 -19.578125 Z M 19.546875 0 "/></g></g></g><g fill="#000000" fill-opacity="1"><g transform="translate(232.43804, 194.29323)"><g><path d="M 11.25 -19.65625 C 12.625 -19.65625 13.96875 -19.390625 15.28125 -18.859375 C 16.59375 -18.328125 17.726562 -17.585938 18.6875 -16.640625 L 16.75 -14.234375 C 16.039062 -14.992188 15.203125 -15.597656 14.234375 -16.046875 C 13.265625 -16.492188 12.285156 -16.71875 11.296875 -16.71875 C 9.335938 -16.71875 7.679688 -16.050781 6.328125 -14.71875 C 4.984375 -13.382812 4.3125 -11.757812 4.3125 -9.84375 C 4.3125 -7.90625 4.984375 -6.269531 6.328125 -4.9375 C 7.679688 -3.601562 9.335938 -2.9375 11.296875 -2.9375 C 13.328125 -2.9375 15.144531 -3.710938 16.75 -5.265625 L 18.71875 -3.078125 C 17.707031 -2.085938 16.53125 -1.300781 15.1875 -0.71875 C 13.84375 -0.144531 12.488281 0.140625 11.125 0.140625 C 8.257812 0.140625 5.847656 -0.8125 3.890625 -2.71875 C 1.929688 -4.632812 0.953125 -7 0.953125 -9.8125 C 0.953125 -12.59375 1.941406 -14.925781 3.921875 -16.8125 C 5.910156 -18.707031 8.351562 -19.65625 11.25 -19.65625 Z M 11.25 -19.65625 "/></g></g></g><g fill="#000000" fill-opacity="1"><g transform="translate(253.551358, 194.29323)"><g><path d="M 15.21875 -4.421875 L 5.34375 -4.421875 L 3.46875 0 L 0.03125 0 L 8.671875 -19.578125 L 12.046875 -19.578125 L 20.609375 0 L 17.09375 0 Z M 13.953125 -7.359375 L 10.265625 -16.046875 L 6.578125 -7.359375 Z M 13.953125 -7.359375 "/></g></g></g><g fill="#000000" fill-opacity="1"><g transform="translate(275.811208, 194.29323)"><g><path d="M 14.984375 0 L 11.40625 -5.921875 C 11.21875 -5.910156 10.921875 -5.90625 10.515625 -5.90625 L 5.875 -5.90625 L 5.875 0 L 2.578125 0 L 2.578125 -19.578125 L 10.515625 -19.578125 C 13.015625 -19.578125 14.953125 -18.992188 16.328125 -17.828125 C 17.710938 -16.660156 18.40625 -15.015625 18.40625 -12.890625 C 18.40625 -11.328125 18.054688 -10.003906 17.359375 -8.921875 C 16.660156 -7.835938 15.65625 -7.046875 14.34375 -6.546875 L 18.734375 0 Z M 5.875 -8.859375 L 10.515625 -8.859375 C 13.679688 -8.859375 15.265625 -10.175781 15.265625 -12.8125 C 15.265625 -15.34375 13.679688 -16.609375 10.515625 -16.609375 L 5.875 -16.609375 Z M 5.875 -8.859375 "/></g></g></g><g fill="#000000" fill-opacity="1"><g transform="translate(297.651594, 194.29323)"><g><path d="M 16.5625 -16.609375 L 5.875 -16.609375 L 5.875 -11.328125 L 15.4375 -11.328125 L 15.4375 -8.359375 L 5.875 -8.359375 L 5.875 -2.96875 L 16.890625 -2.96875 L 16.890625 0 L 2.578125 0 L 2.578125 -19.578125 L 16.5625 -19.578125 Z M 16.5625 -16.609375 "/></g></g></g><g fill="#000000" fill-opacity="1"><g transform="translate(156.580045, 207.115664)"><g><path d="M 3.5 -6.125 C 3.9375 -6.125 4.359375 -6.039062 4.765625 -5.875 C 5.171875 -5.707031 5.523438 -5.476562 5.828125 -5.1875 L 5.21875 -4.4375 C 5 -4.675781 4.738281 -4.863281 4.4375 -5 C 4.132812 -5.144531 3.828125 -5.21875 3.515625 -5.21875 C 2.910156 -5.21875 2.394531 -5.007812 1.96875 -4.59375 C 1.550781 -4.175781 1.34375 -3.664062 1.34375 -3.0625 C 1.34375 -2.457031 1.550781 -1.945312 1.96875 -1.53125 C 2.394531 -1.125 2.910156 -0.921875 3.515625 -0.921875 C 4.148438 -0.921875 4.71875 -1.160156 5.21875 -1.640625 L 5.828125 -0.953125 C 5.515625 -0.648438 5.148438 -0.40625 4.734375 -0.21875 C 4.316406 -0.0390625 3.894531 0.046875 3.46875 0.046875 C 2.570312 0.046875 1.816406 -0.25 1.203125 -0.84375 C 0.597656 -1.445312 0.296875 -2.1875 0.296875 -3.0625 C 0.296875 -3.925781 0.601562 -4.648438 1.21875 -5.234375 C 1.84375 -5.828125 2.601562 -6.125 3.5 -6.125 Z M 3.5 -6.125 "/></g></g></g><g fill="#000000" fill-opacity="1"><g transform="translate(165.553441, 207.115664)"><g><path d="M 6.09375 0 L 5.0625 0 L 5.0625 -2.53125 L 1.828125 -2.53125 L 1.828125 0 L 0.796875 0 L 0.796875 -6.109375 L 1.828125 -6.109375 L 1.828125 -3.453125 L 5.0625 -3.453125 L 5.0625 -6.109375 L 6.09375 -6.109375 Z M 6.09375 0 "/></g></g></g><g fill="#000000" fill-opacity="1"><g transform="translate(175.346375, 207.115664)"><g><path d="M 4.75 -1.375 L 1.671875 -1.375 L 1.078125 0 L 0.015625 0 L 2.703125 -6.109375 L 3.75 -6.109375 L 6.421875 0 L 5.328125 0 Z M 4.34375 -2.296875 L 3.203125 -5 L 2.046875 -2.296875 Z M 4.34375 -2.296875 "/></g></g></g><g fill="#000000" fill-opacity="1"><g transform="translate(184.677232, 207.115664)"><g><path d="M 1.828125 0 L 0.796875 0 L 0.796875 -6.109375 L 1.828125 -6.109375 Z M 1.828125 0 "/></g></g></g><g fill="#000000" fill-opacity="1"><g transform="translate(190.206812, 207.115664)"><g><path d="M 6.09375 0 L 5.078125 0 L 1.828125 -4.375 L 1.828125 0 L 0.796875 0 L 0.796875 -6.109375 L 1.8125 -6.109375 L 5.078125 -1.71875 L 5.078125 -6.109375 L 6.09375 -6.109375 Z M 6.09375 0 "/></g></g></g><g fill="#000000" fill-opacity="1"><g transform="translate(200.008464, 207.115664)"><g/></g></g><g fill="#000000" fill-opacity="1"><g transform="translate(205.154434, 207.115664)"><g><path d="M 4.96875 -5.171875 L 3.03125 -5.171875 L 3.03125 0 L 2 0 L 2 -5.171875 L 0.078125 -5.171875 L 0.078125 -6.109375 L 4.96875 -6.109375 Z M 4.96875 -5.171875 "/></g></g></g><g fill="#000000" fill-opacity="1"><g transform="translate(213.099046, 207.115664)"><g><path d="M 1.21875 -5.234375 C 1.84375 -5.828125 2.613281 -6.125 3.53125 -6.125 C 4.445312 -6.125 5.210938 -5.828125 5.828125 -5.234375 C 6.453125 -4.648438 6.765625 -3.921875 6.765625 -3.046875 C 6.765625 -2.179688 6.453125 -1.445312 5.828125 -0.84375 C 5.210938 -0.25 4.445312 0.046875 3.53125 0.046875 C 2.613281 0.046875 1.84375 -0.25 1.21875 -0.84375 C 0.601562 -1.445312 0.296875 -2.179688 0.296875 -3.046875 C 0.296875 -3.921875 0.601562 -4.648438 1.21875 -5.234375 Z M 3.546875 -5.203125 C 2.941406 -5.203125 2.421875 -4.992188 1.984375 -4.578125 C 1.554688 -4.160156 1.34375 -3.648438 1.34375 -3.046875 C 1.34375 -2.441406 1.554688 -1.925781 1.984375 -1.5 C 2.421875 -1.082031 2.9375 -0.875 3.53125 -0.875 C 4.132812 -0.875 4.644531 -1.082031 5.0625 -1.5 C 5.488281 -1.925781 5.703125 -2.441406 5.703125 -3.046875 C 5.703125 -3.648438 5.488281 -4.160156 5.0625 -4.578125 C 4.644531 -4.992188 4.140625 -5.203125 3.546875 -5.203125 Z M 3.546875 -5.203125 "/></g></g></g><g fill="#000000" fill-opacity="1"><g transform="translate(223.057634, 207.115664)"><g><path d="M 4.984375 -3 L 5.875 -3 L 5.875 -0.75 C 5.5625 -0.507812 5.191406 -0.316406 4.765625 -0.171875 C 4.335938 -0.0234375 3.914062 0.046875 3.5 0.046875 C 2.601562 0.046875 1.84375 -0.25 1.21875 -0.84375 C 0.601562 -1.445312 0.296875 -2.179688 0.296875 -3.046875 C 0.296875 -3.921875 0.609375 -4.648438 1.234375 -5.234375 C 1.859375 -5.828125 2.632812 -6.125 3.5625 -6.125 C 4 -6.125 4.421875 -6.046875 4.828125 -5.890625 C 5.242188 -5.742188 5.601562 -5.539062 5.90625 -5.28125 L 5.328125 -4.515625 C 4.828125 -4.984375 4.238281 -5.21875 3.5625 -5.21875 C 2.945312 -5.21875 2.421875 -5.003906 1.984375 -4.578125 C 1.554688 -4.160156 1.34375 -3.648438 1.34375 -3.046875 C 1.34375 -2.441406 1.554688 -1.925781 1.984375 -1.5 C 2.421875 -1.082031 2.953125 -0.875 3.578125 -0.875 C 4.046875 -0.875 4.515625 -1.015625 4.984375 -1.296875 Z M 4.984375 -3 "/></g></g></g><g fill="#000000" fill-opacity="1"><g transform="translate(232.484387, 207.115664)"><g><path d="M 4.75 -1.375 L 1.671875 -1.375 L 1.078125 0 L 0.015625 0 L 2.703125 -6.109375 L 3.75 -6.109375 L 6.421875 0 L 5.328125 0 Z M 4.34375 -2.296875 L 3.203125 -5 L 2.046875 -2.296875 Z M 4.34375 -2.296875 "/></g></g></g><g fill="#000000" fill-opacity="1"><g transform="translate(241.815246, 207.115664)"><g><path d="M 4.96875 -5.171875 L 3.03125 -5.171875 L 3.03125 0 L 2 0 L 2 -5.171875 L 0.078125 -5.171875 L 0.078125 -6.109375 L 4.96875 -6.109375 Z M 4.96875 -5.171875 "/></g></g></g><g fill="#000000" fill-opacity="1"><g transform="translate(249.759863, 207.115664)"><g><path d="M 6.09375 0 L 5.0625 0 L 5.0625 -2.53125 L 1.828125 -2.53125 L 1.828125 0 L 0.796875 0 L 0.796875 -6.109375 L 1.828125 -6.109375 L 1.828125 -3.453125 L 5.0625 -3.453125 L 5.0625 -6.109375 L 6.09375 -6.109375 Z M 6.09375 0 "/></g></g></g><g fill="#000000" fill-opacity="1"><g transform="translate(259.552801, 207.115664)"><g><path d="M 5.15625 -5.171875 L 1.828125 -5.171875 L 1.828125 -3.53125 L 4.8125 -3.53125 L 4.8125 -2.609375 L 1.828125 -2.609375 L 1.828125 -0.921875 L 5.265625 -0.921875 L 5.265625 0 L 0.796875 0 L 0.796875 -6.109375 L 5.15625 -6.109375 Z M 5.15625 -5.171875 "/></g></g></g><g fill="#000000" fill-opacity="1"><g transform="translate(268.16874, 207.115664)"><g><path d="M 4.671875 0 L 3.5625 -1.84375 C 3.5 -1.84375 3.40625 -1.84375 3.28125 -1.84375 L 1.828125 -1.84375 L 1.828125 0 L 0.796875 0 L 0.796875 -6.109375 L 3.28125 -6.109375 C 4.0625 -6.109375 4.664062 -5.925781 5.09375 -5.5625 C 5.519531 -5.195312 5.734375 -4.679688 5.734375 -4.015625 C 5.734375 -3.523438 5.625 -3.113281 5.40625 -2.78125 C 5.1875 -2.445312 4.875 -2.203125 4.46875 -2.046875 L 5.84375 0 Z M 1.828125 -2.765625 L 3.28125 -2.765625 C 4.269531 -2.765625 4.765625 -3.175781 4.765625 -4 C 4.765625 -4.78125 4.269531 -5.171875 3.28125 -5.171875 L 1.828125 -5.171875 Z M 1.828125 -2.765625 "/></g></g></g></svg>